<?xml version="1.0" standalone="no"?><!DOCTYPE svg PUBLIC "-//W3C//DTD SVG 1.1//EN" "http://www.w3.org/Graphics/SVG/1.1/DTD/svg11.dtd"><svg t="1662965790474" class="icon" viewBox="0 0 1024 1024" version="1.1" xmlns="http://www.w3.org/2000/svg" p-id="1254" xmlns:xlink="http://www.w3.org/1999/xlink" width="200" height="200"><path d="M356.7 720.3c-12.8-15.2-10.8-37.9 4.4-50.7l441.2-370.2c15.2-12.8 37.9-10.8 50.7 4.4 12.8 15.2 10.8 37.9-4.4 50.7L407.4 724.7c-15.2 12.8-37.9 10.8-50.7-4.4z" p-id="1255"></path><path d="M406.7 724.7c-15.2 12.8-37.9 10.8-50.7-4.4L170.9 499.6c-12.8-15.2-10.8-37.9 4.4-50.7 15.2-12.8 37.9-10.8 50.7 4.4L411.2 674c12.7 15.2 10.8 37.9-4.5 50.7z" p-id="1256"></path></svg>