<?xml version="1.0" standalone="no"?><!DOCTYPE svg PUBLIC "-//W3C//DTD SVG 1.1//EN" "http://www.w3.org/Graphics/SVG/1.1/DTD/svg11.dtd"><svg t="1662965767743" class="icon" viewBox="0 0 1024 1024" version="1.1" xmlns="http://www.w3.org/2000/svg" p-id="5950" xmlns:xlink="http://www.w3.org/1999/xlink" width="200" height="200"><path d="M863.3 296c-12.8-15.2-35.5-17.2-50.7-4.4L624.1 449.7l-64.7-77.1c-12.8-15.2-35.5-17.2-50.7-4.4-15.2 12.8-17.2 35.5-4.4 50.7L569 496 379 655.4 215.9 461.1c-12.8-15.2-35.5-17.2-50.7-4.4-15.2 12.8-17.2 35.5-4.4 50.7L345.9 728c7.4 8.8 18.1 13.2 28.8 12.8 8.6 0.3 17.4-2.4 24.6-8.4l216-181.3 74.1 88.3c12.8 15.2 35.5 17.2 50.7 4.4 15.2-12.8 17.2-35.5 4.4-50.7l-74.1-88.3 188.4-158.1C874 334 876 311.3 863.3 296z" p-id="5951"></path></svg>