<?xml version="1.0" standalone="no"?><!DOCTYPE svg PUBLIC "-//W3C//DTD SVG 1.1//EN" "http://www.w3.org/Graphics/SVG/1.1/DTD/svg11.dtd"><svg t="1662293463552" class="icon" viewBox="0 0 1024 1024" version="1.1" xmlns="http://www.w3.org/2000/svg" p-id="7332" xmlns:xlink="http://www.w3.org/1999/xlink" width="200" height="200"><path d="M419.413333 375.04L341.333333 403.456V554.666667H256V343.466667h0.64l224.768-81.834667c10.410667-3.968 21.76-5.973333 33.365333-5.589333a111.616 111.616 0 0 1 103.552 77.653333c7.936 24.874667 15.189333 41.685333 21.76 50.432A212.992 212.992 0 0 0 810.666667 469.333333v85.333334a298.069333 298.069333 0 0 1-230.485334-108.672l-29.738666 168.789333L640 689.92V981.333333h-85.333333v-251.648l-96.853334-81.237333-31.018666 176.085333-294.144-51.84 14.848-84.053333 210.090666 37.034667L419.413333 375.04zM576 234.666667a85.333333 85.333333 0 1 1 0-170.666667 85.333333 85.333333 0 0 1 0 170.666667z" p-id="7333" data-spm-anchor-id="a313x.7781069.0.i0"></path></svg>